<svg xmlns="http://www.w3.org/2000/svg" width="161" height="153" viewBox="0 0 161 153">
  <g fill="#363638" transform="matrix(-1 0 0 1 161 0)">
    <path d="M50.1754413 53.4910765C49.2201944 52.7264246 47.817324 52.8703833 47.0420769 53.813884 46.0945528 54.9673121 44.8366328 55.6023719 43.5 55.6023719 42.1633672 55.6023719 40.9054472 54.9673121 39.9579231 53.813884 39.182973 52.8706765 37.7798056 52.7264246 36.8245587 53.4910765 35.8690148 54.2560217 35.7225792 55.6410737 36.4975292 56.5842812 38.2811914 58.7550951 40.8335661 60 43.5 60 46.1664339 60 48.7188086 58.7548019 50.5024708 56.5842812 51.2774208 55.6413668 51.1309852 54.2563148 50.1754413 53.4910765zM33.5 39C32.1193333 39 31 39.9845445 31 41.1989529L31 43.8010471C31 45.0154555 32.1193333 46 33.5 46 34.8806667 46 36 45.0154555 36 43.8010471L36 41.1989529C36 39.9842513 34.8806667 39 33.5 39zM55.5 39C54.1193333 39 53 39.9845445 53 41.1989529L53 43.8010471C53 45.0154555 54.1193333 46 55.5 46 56.8806667 46 58 45.0154555 58 43.8010471L58 41.1989529C58 39.9842513 56.8806667 39 55.5 39zM16.5 104C15.1193333 104 14 105.048038 14 106.340764L14 150.659236C14 151.951962 15.1193333 153 16.5 153 17.8806667 153 19 151.951962 19 150.659236L19 106.340764C19 105.048038 17.8806667 104 16.5 104zM71.5 104C70.1193333 104 69 105.048038 69 106.340764L69 150.659236C69 151.951962 70.1193333 153 71.5 153 72.8806667 153 74 151.951962 74 150.659236L74 106.340764C74 105.048038 72.8806667 104 71.5 104zM126.175441 67.4910765C125.220194 66.7264246 123.817027 66.8703833 123.042077 67.813884 122.094553 68.9673121 120.836633 69.6023719 119.5 69.6023719 118.163367 69.6023719 116.905447 68.9673121 115.957923 67.813884 115.182973 66.8706765 113.779806 66.7264246 112.824559 67.4910765 111.869015 68.2560217 111.722579 69.6410737 112.497529 70.5842812 114.281191 72.7550951 116.833566 74 119.5 74 122.166434 74 124.718809 72.7548019 126.502471 70.5842812 127.277421 69.6413668 127.130985 68.2563148 126.175441 67.4910765zM108.5 53C107.119333 53 106 53.9845445 106 55.1989529L106 57.8010471C106 59.0154555 107.119333 60 108.5 60 109.880667 60 111 59.0154555 111 57.8010471L111 55.1989529C111 53.9842513 109.880667 53 108.5 53zM130.5 53C129.119333 53 128 53.9845445 128 55.1989529L128 57.8010471C128 59.0154555 129.119333 60 130.5 60 131.880667 60 133 59.0154555 133 57.8010471L133 55.1989529C133 53.9842513 131.880667 53 130.5 53z"/>
    <path d="M154.324235,101.709943 L152.382687,100.925319 L144.552076,73.1576253 C145.408797,71.3438117 146.073822,69.4366355 146.516342,67.4669032 C146.963529,65.4764236 147.190391,63.4233878 147.190391,61.3650081 C147.190391,47.632522 137.343233,45.65776 127.820653,43.748069 C121.730558,42.5268098 115.433207,41.264056 110.410201,37.2051374 C109.86063,36.7609574 109.141457,36.5927789 108.454027,36.7442967 C107.766596,36.8958146 107.182793,37.3538261 106.865996,37.988818 C106.852926,38.0149093 105.545283,40.6152326 103.333617,43.1473415 C101.460531,45.2918538 98.5188008,47.8481678 95.1426414,47.8481678 C94.0074004,47.8481678 92.9284858,48.0946201 91.952888,48.5343991 L91.952888,44.6260553 C91.952888,38.7212592 93.7970323,32.9550925 97.1703909,28.1766212 C98.926778,29.4752111 101.089586,30.2444315 103.42822,30.2444315 C108.740015,30.2444315 113.153078,26.2842195 113.927021,21.1335549 C114.933738,21.6082271 116.055287,21.8747979 117.237518,21.8747979 C120.615233,21.8747979 123.50126,19.7107958 124.610049,16.6832675 C130.756471,17.7108856 136.395021,20.7770792 140.658398,25.4647027 C145.42249,30.7027573 148.045867,37.5078588 148.045867,44.6260553 L148.045867,50.205811 C148.045867,51.5078588 149.090861,52.5634543 150.379833,52.5634543 C151.668805,52.5634543 152.713799,51.5078588 152.713799,50.205811 L152.713799,44.6260553 C152.713799,36.3227501 149.653192,28.3850368 144.095863,22.2743399 C139.001905,16.6735225 132.222512,13.054383 124.845002,11.946605 C123.968364,8.53022274 120.890019,6 117.237829,6 C113.917063,6 111.073047,8.09264415 109.924736,11.0400126 C108.127583,9.63171367 105.874216,8.78987785 103.428531,8.78987785 C97.5730778,8.78987785 92.8089867,13.6022993 92.8089867,19.5171547 C92.8089867,21.3240525 93.255241,23.0265852 94.0397647,24.5219598 C89.6783605,30.2670648 87.2852676,37.3579127 87.2852676,44.6260553 L87.2852676,55.7855667 C87.2852676,59.3685558 89.6478634,62.4048859 92.8821176,63.3881803 C92.9817002,64.7647297 93.1824213,66.1302766 93.4830361,67.4675319 C93.925556,69.4369499 94.5902694,71.3444405 95.4473017,73.1579396 L87.6166907,100.925633 L85.6754535,101.710257 C81.6202657,103.348662 79,107.258263 79,111.670199 L79,125.534399 C79,126.15996 79.2461556,126.759745 79.6840076,127.202039 C80.1218596,127.644018 80.7153093,127.892042 81.3339658,127.892042 C81.334277,127.892042 81.3345882,127.892042 81.3348994,127.892042 L81.7618596,127.892042 L81.7618596,150.642357 C81.7618596,151.944405 82.8068539,153 84.0958254,153 C85.384797,153 86.4297913,151.944405 86.4297913,150.642357 L86.4297913,127.891099 L92.8092979,127.891099 L92.8092979,150.642357 C92.8092979,151.944405 93.8542922,153 95.1432638,153 C96.4322353,153 97.4772296,151.944405 97.4772296,150.642357 L97.4772296,121.347853 C97.4772296,117.989312 95.8891992,114.781031 93.2294118,112.766032 L85.7513852,107.100772 C86.2368501,106.683312 86.7920228,106.337525 87.4091233,106.087929 L91.1801898,104.564263 C97.2304516,110.36155 108.187643,113.941081 120.010892,113.941081 C131.905404,113.941081 142.774528,110.377268 148.833814,104.569921 L152.590877,106.087929 C153.207977,106.33721 153.763461,106.683312 154.248615,107.100458 L146.770588,112.766032 C144.110801,114.781031 142.52277,117.989312 142.52277,121.347853 L142.52277,150.641728 C142.52277,151.943776 143.567765,152.999371 144.856736,152.999371 C146.145708,152.999371 147.190702,151.943776 147.190702,150.641728 L147.190702,127.890471 L153.570209,127.890471 L153.570209,150.641728 C153.570209,151.943776 154.615203,152.999371 155.904175,152.999371 C157.193146,152.999371 158.23814,151.943776 158.23814,150.641728 L158.23814,127.890471 L158.666034,127.890471 C159.285002,127.890471 159.878763,127.642132 160.316304,127.200153 C160.754156,126.757859 161,126.158389 161,125.532827 L161,111.669885 C160.999689,107.257949 158.379423,103.348662 154.324235,101.709943 Z M117.237829,10.7156009 C118.996706,10.7156009 120.427583,12.1609934 120.427583,13.9377133 C120.427583,15.7144333 118.996706,17.1598258 117.237829,17.1598258 C115.478953,17.1598258 114.048076,15.7144333 114.048076,13.9377133 C114.048076,12.160679 115.478953,10.7156009 117.237829,10.7156009 Z M103.428531,13.5054787 C106.710087,13.5054787 109.380144,16.2023082 109.380144,19.517469 C109.380144,22.8326298 106.710087,25.5294593 103.428531,25.5294593 C100.146975,25.5294593 97.4769184,22.8326298 97.4769184,19.517469 C97.4769184,16.2019939 100.146975,13.5054787 103.428531,13.5054787 Z M90.4283416,116.538261 C91.9189677,117.667729 92.8089867,119.465511 92.8089867,121.347853 L92.8089867,123.175184 L83.6676205,123.175498 L83.6676205,111.669885 C83.6676205,111.58721 83.6735332,111.505479 83.6766452,111.423118 L90.4283416,116.538261 Z M95.1429526,59.0079935 C93.3840759,59.0079935 91.9531992,57.562601 91.9531992,55.7858811 C91.9531992,54.0091611 93.3840759,52.5637686 95.1429526,52.5637686 C102.220471,52.5637686 107.353951,46.0899946 109.672046,42.4680259 C115.115165,46.008263 121.34063,47.2565565 126.911651,48.373765 C137.169586,50.4308874 142.522459,51.9432369 142.522459,61.3656368 C142.522459,63.0735136 142.334497,64.7754176 141.964486,66.4241962 C140.853518,71.369903 138.077032,75.8610562 134.146945,79.0699659 C130.10296,82.3719238 125.210968,84.1172086 119.999689,84.1172086 C114.78841,84.1172086 109.896417,82.3719238 105.852433,79.0699659 C101.922345,75.8610562 99.1461708,71.3702174 98.0348918,66.4241962 C97.6645693,64.7754176 97.4769184,63.0735136 97.4769184,61.3656368 C97.4769184,60.0632747 96.4319241,59.0079935 95.1429526,59.0079935 Z M98.7845617,78.5343093 C100.004448,80.0733788 101.387712,81.4870217 102.918171,82.7365727 C104.082975,83.6878031 105.322467,84.5330968 106.618285,85.2715107 L106.618285,91.0659691 C106.618285,92.391279 105.831271,93.5653853 104.613252,94.0576612 L93.0943529,98.7119634 L98.7845617,78.5343093 Z M120.010892,109.225481 C110.398376,109.225481 101.544243,106.725121 96.0824516,102.583528 L106.347233,98.4359619 C109.34778,97.2235046 111.286528,94.3305191 111.286528,91.0662835 L111.286528,87.3742141 C114.077951,88.3279594 117.022482,88.8321807 120,88.8321807 C122.977518,88.8321807 125.922049,88.3279594 128.713472,87.3742141 L128.713472,91.0662835 C128.713472,94.3308335 130.65222,97.2235046 133.653078,98.4359619 L143.924395,102.586043 C138.476918,106.683312 129.529116,109.225481 120.010892,109.225481 Z M135.386436,94.0579756 C134.168417,93.5656997 133.381404,92.3915933 133.381404,91.0662835 L133.381404,85.271825 C134.677222,84.5330968 135.916713,83.6878031 137.081518,82.736887 C138.612288,81.4870217 139.995241,80.0736932 141.215127,78.5346237 L146.905336,98.7122777 L135.386436,94.0579756 Z M156.331757,123.175184 L147.190391,123.175184 L147.190391,121.347853 C147.190391,119.465825 148.08041,117.667729 149.571036,116.538261 L156.322732,111.423118 C156.325844,111.505479 156.331757,111.586896 156.331757,111.669885 L156.331757,123.175184 Z"/>
    <path d="M85.2147765,84.5321422 C84.026178,83.4657501 82.6459515,82.691883 81.1122965,82.2326062 L60.7716354,76.1397026 L60.7716354,69.2663122 C67.0524234,64.6224787 71.3017025,57.38753 71.9049991,49.1533312 C75.1857203,48.1673205 77.5824904,45.1229176 77.5824904,41.5297152 C77.5824904,39.2040159 76.5356398,36.9996765 74.7806813,35.5011167 L74.7806813,19.149666 C74.7806813,14.66628 72.5070329,10.4732124 68.7799164,7.96058709 C67.5341768,3.28617726 63.3354092,0 58.4039094,0 L35.9894361,0 C23.8692042,0 14.0090458,9.8452925 14.0090458,21.947251 L14.0090458,35.5017471 C12.2540873,37.000307 11.2072367,39.2046463 11.2072367,41.5303457 C11.2072367,45.1232328 13.6040068,48.1679509 16.8847281,49.1539617 C17.4880247,57.3881605 21.736988,64.622794 28.0180917,69.2669426 L28.0180917,76.140333 L7.67774636,82.2332366 C3.0853049,83.6082299 0,87.7486557 0,92.5359146 L0,150.635844 C0,151.941488 1.06010988,153 2.36772606,153 C3.67534223,153 4.73545211,151.941488 4.73545211,150.635844 L4.73545211,92.5359146 C4.73545211,89.85307 6.46483922,87.5324142 9.0383996,86.761384 L22.6569285,82.6821111 C23.1648846,86.2740526 24.5839418,95.1427909 27.529393,106.135802 C31.0314177,119.204543 37.4429042,137.778616 48.1005127,152.048979 C48.5652184,152.67154 49.2783775,153 50.0003761,153 C50.4925474,153 50.9891385,152.847433 51.4140664,152.530951 C52.4621798,151.750465 52.6784321,150.269242 51.8967668,149.222393 C49.9021944,146.551527 48.0601035,143.713279 46.3553407,140.771953 C61.339574,119.950041 65.3744949,90.3501733 66.1934124,82.6997635 L79.7519589,86.7610688 C80.6116013,87.0186042 81.3847428,87.4517176 82.0502317,88.0487459 C82.5026252,88.4547504 83.0683539,88.6542851 83.6318727,88.6542851 C84.2803139,88.6542851 84.9262296,88.3898149 85.3937766,87.8703309 C86.2673096,86.8994507 86.1874383,85.4049887 85.2147765,84.5321422 Z M21.5463071,47.1255156 C21.5463071,45.8050555 20.4618886,44.7374025 19.1337521,44.7616745 C18.064487,44.7815334 17.0327899,44.3115391 16.4837931,43.3951922 C15.4138966,41.6088357 16.0108793,39.6588795 17.5675802,38.754511 C17.5697901,38.7532501 17.5716843,38.7519892 17.5738942,38.7507283 C18.0458609,38.4739644 18.5708647,38.2990168 19.118283,38.2990168 L24.7821994,38.2990168 C25.8012687,38.2990168 26.7060557,37.6480858 27.0283822,36.6825644 L29.2979265,29.8835661 C34.8456665,29.7615756 52.2898093,28.9880237 62.1654369,24.1109268 C63.2621676,23.5690622 63.8525206,22.3028201 63.4364322,21.1538401 C62.945208,19.796184 61.4011349,19.2064058 60.1465558,19.8327496 C49.5738697,25.1108073 27.8021551,25.1782646 27.5836929,25.1782646 C26.5646236,25.1785798 25.6598365,25.8295109 25.3378258,26.7947171 L23.0755424,33.5710195 L18.7444979,33.5710195 L18.7444979,21.947251 C18.7444979,12.4376687 26.4654948,4.7283126 35.9894361,4.7283126 L58.4039094,4.7283126 C61.3938739,4.7283126 63.9033478,6.89419499 64.3469018,9.8695645 C64.450766,10.5662026 64.9060008,11.1559807 65.5200311,11.5024085 C68.3114223,13.0778822 70.0449135,16.0072295 70.0449135,19.149666 L70.0449135,36.7112495 C70.0449135,37.5623457 70.510882,38.3343216 71.2442456,38.7677502 C72.7719025,39.6708579 73.360677,41.586455 72.3305584,43.3529526 C71.7834558,44.2907346 70.7422877,44.7818486 69.6556593,44.7616745 C68.3275228,44.7370873 67.2431043,45.8047403 67.2431043,47.1255156 C67.2431043,59.7053489 56.9933761,69.9396239 44.3945479,69.9396239 C31.7957197,69.9396239 21.5463071,59.7050336 21.5463071,47.1255156 Z M44.3948636,83.5344683 L32.7535438,76.5602072 L32.7535438,72.0884843 C36.2928207,73.7405568 40.2368209,74.6676213 44.3948636,74.6676213 C48.5529062,74.6676213 52.4969064,73.740872 56.0361833,72.0884843 L56.0361833,76.5602072 L44.3948636,83.5344683 Z M47.6307558,94.5397735 L47.6307558,97.4817296 C47.6307558,97.7206669 47.4359709,97.9151582 47.1966727,97.9151582 L41.5930544,97.9151582 C41.3537562,97.9151582 41.1589713,97.7206669 41.1589713,97.4817296 L41.1589713,94.5397735 L44.3948636,90.2316502 L47.6307558,94.5397735 Z M27.2500013,81.3064874 L30.0647541,80.4632716 L40.9256713,86.9700602 L35.4391765,94.2740423 L28.6611661,89.7641777 C27.885499,85.6971984 27.4422607,82.7063831 27.2500013,81.3064874 Z M36.4506691,118.88554 C33.5582549,110.720374 31.4784444,102.837332 30.0275018,96.3544998 L34.6761373,99.4487076 C35.0789665,99.7169605 35.535464,99.8458859 35.9878576,99.8458859 C36.3048172,99.8458859 36.6183041,99.7787438 36.910955,99.6554925 C37.3519835,100.598318 38.0682995,101.384794 38.9579331,101.914365 L36.4506691,118.88554 Z M43.8155599,136.127174 C42.409762,133.397677 41.1138266,130.609549 39.9192299,127.80629 L43.6368755,102.643471 L45.1525359,102.643471 L48.8190386,127.45072 C47.3248456,130.445634 45.6630176,133.363948 43.8155599,136.127174 Z M52.4110369,119.366252 L49.831794,101.91468 C50.7217433,101.385109 51.4380593,100.598633 51.8787721,99.6558077 C52.171423,99.779059 52.4849099,99.8462011 52.8018695,99.8462011 C53.2542631,99.8462011 53.7107606,99.7169605 54.1135898,99.4490228 L59.2332449,96.0411703 C57.8280784,102.832919 55.6680809,111.120074 52.4110369,119.366252 Z M60.4401538,89.5640125 L53.3505506,94.2743575 L47.8640558,86.9703754 L58.7252887,80.4635868 L61.5706641,81.3156288 C61.4345987,82.6540565 61.099013,85.5897081 60.4401538,89.5640125 Z"/>
  </g>
</svg>
