<?xml version="1.0" encoding="UTF-8"?>
<svg width="80px" height="80px" viewBox="0 0 80 80" version="1.1" xmlns="http://www.w3.org/2000/svg" xmlns:xlink="http://www.w3.org/1999/xlink">
    <!-- Generator: Sketch 42 (36781) - http://www.bohemiancoding.com/sketch -->
    <title>align-bottom</title>
    <desc>Created with Sketch.</desc>
    <defs></defs>
    <g id="Symbols" stroke="none" stroke-width="1" fill="none" fill-rule="evenodd">
        <g id="steps" transform="translate(-1008.000000, 0.000000)" fill="#4573E3">
            <g id="Group-7">
                <g transform="translate(881.000000, 0.000000)">
                    <path d="M178.381333,33.205 L169.666667,43.0875 L169.666667,12.5 C169.666667,11.12 168.474667,10 167,10 C165.525333,10 164.333333,11.12 164.333333,12.5 L164.333333,43.1825 L155.536,33.205 C154.493333,32.225 152.797333,32.225 151.752,33.205 C150.706667,34.19 150.706667,35.7825 151.752,36.765 L164.930667,51.7175 C165.490667,52.24 166.229333,52.4625 166.957333,52.4275 C167.688,52.4625 168.426667,52.24 168.986667,51.7175 L182.165333,36.765 C183.210667,35.7825 183.210667,34.19 182.165333,33.205 C181.12,32.225 179.424,32.225 178.381333,33.205 L178.381333,33.205 Z M201.666667,60 L132.333333,60 L132.333333,10 C132.333333,7.24 134.722667,5 137.666667,5 L196.333333,5 C199.277333,5 201.666667,7.24 201.666667,10 L201.666667,60 L201.666667,60 Z M201.666667,70 C201.666667,72.76 199.277333,75 196.333333,75 L137.666667,75 C134.722667,75 132.333333,72.76 132.333333,70 L132.333333,65 L201.666667,65 L201.666667,70 L201.666667,70 Z M196.333333,0 L137.666667,0 C131.776,0 127,4.4775 127,10 L127,70 C127,75.5225 131.776,80 137.666667,80 L196.333333,80 C202.224,80 207,75.5225 207,70 L207,10 C207,4.4775 202.224,0 196.333333,0 L196.333333,0 Z" id="align-bottom"></path>
                </g>
            </g>
        </g>
    </g>
</svg>