<?xml version="1.0" encoding="UTF-8"?>
<svg width="80px" height="80px" viewBox="0 0 80 80" version="1.1" xmlns="http://www.w3.org/2000/svg" xmlns:xlink="http://www.w3.org/1999/xlink">
    <!-- Generator: Sketch 42 (36781) - http://www.bohemiancoding.com/sketch -->
    <title>new</title>
    <desc>Created with Sketch.</desc>
    <defs></defs>
    <g id="Symbols" stroke="none" stroke-width="1" fill="none" fill-rule="evenodd">
        <g id="steps" transform="translate(-567.000000, 0.000000)" fill="#4573E3">
            <g id="Group-8">
                <g transform="translate(440.000000, 0.000000)">
                    <path d="M156.465,57.55 L143.035,65.6825 C141.8125,66.2525 140.7125,65.0725 141.2825,63.9275 L149.4125,50.4875 L156.465,57.55 L156.465,57.55 Z M180.0975,18.055 L188.94,26.78 L160.84,54.8975 C157.55,51.6025 152.9925,47.0425 152.06,46.11 L180.0975,18.055 L180.0975,18.055 Z M188.94,9.2075 C189.91,8.235 191.4825,8.235 192.455,9.2075 L197.7225,14.4775 C198.6925,15.45 198.6925,17.0225 197.7225,17.9925 L192.455,23.265 L183.7975,14.35 L188.94,9.2075 L188.94,9.2075 Z M147.275,45.17 L136.525,66.9325 C135.6225,69.385 137.5825,71.58 140.0325,70.4425 L161.78,59.685 C162.7175,59.5025 163.6275,59.1375 164.3525,58.4125 L202.99,19.7475 C204.93,17.81 204.93,14.66 202.99,12.72 L194.21,3.9325 C192.2675,1.9925 189.125,1.9925 187.185,3.9325 L148.5475,42.595 C147.82,43.3225 147.46,44.2325 147.275,45.17 L147.275,45.17 Z M202,30 L202,70 C202,72.7475 199.285,75.03 196.5425,75.03 L136.935,75.03 C134.1925,75.03 131.9675,72.805 131.9675,70.0575 L131.9675,10.4125 C131.9675,7.665 134.255,5 137,5 L177,5 L177,0 L137,0 C131.515,0 127,4.9225 127,10.4125 L127,70.0575 C127,75.55 131.4475,80 136.935,80 L196.5425,80 C202.03,80 207,75.49 207,70 L207,30 L202,30 L202,30 Z" id="new"></path>
                </g>
            </g>
        </g>
    </g>
</svg>