<svg xmlns="http://www.w3.org/2000/svg" width="151" height="146" viewBox="0 0 151 146">
  <g fill="#363638">
    <path d="M136.9721,27.6833333 L135.897483,27.6833333 L118.283333,27.6833333 C119.67505,27.6833333 120.8,26.5583833 120.8,25.1666667 C120.8,23.77495 119.67505,22.65 118.283333,22.65 L115.766667,22.65 C114.37495,22.65 113.25,23.77495 113.25,25.1666667 C113.25,26.5583833 114.37495,27.6833333 115.766667,27.6833333 L110.733333,27.6833333 L110.733333,20.1333333 L105.7,20.1333333 L105.7,17.3373167 C105.7,7.7765 97.9235,0 88.3626833,0 L62.6373167,0 C53.0765,0 45.3,7.7765 45.3,17.3373167 L45.3,20.1333333 L40.2666667,20.1333333 L40.2666667,27.6833333 L35.2333333,27.6833333 C36.62505,27.6833333 37.75,26.5583833 37.75,25.1666667 C37.75,23.77495 36.62505,22.65 35.2333333,22.65 L32.7166667,22.65 C31.32495,22.65 30.2,23.77495 30.2,25.1666667 C30.2,26.5583833 31.32495,27.6833333 32.7166667,27.6833333 L15.1025167,27.6833333 L14.0279,27.6833333 C6.29418333,27.6833333 0,33.9775167 0,41.7112333 L0,47.8166667 L0,67.95 L0,98.15 L0,118.283333 L0,124.388767 C0,129.787017 3.07033333,134.47305 7.55,136.818583 L7.55,145.966667 L30.2,145.966667 L30.2,138.416667 L120.8,138.416667 L120.8,145.966667 L143.45,145.966667 L143.45,136.818583 C147.929667,134.47305 151,129.7845 151,124.388767 L151,118.283333 L151,98.15 L151,67.95 L151,47.8166667 L151,41.7112333 C151,33.9775167 144.705817,27.6833333 136.9721,27.6833333 Z M105.7,27.6833333 L90.6,27.6833333 L90.6,25.1666667 L105.7,25.1666667 L105.7,27.6833333 Z M90.6,20.1333333 L85.5666667,20.1333333 L85.5666667,27.6833333 L65.4333333,27.6833333 L65.4333333,20.1333333 L60.4,20.1333333 L60.4,16.2174 C60.4,15.5353833 60.8404167,15.16795 61.0291667,15.0396 C61.2154,14.9087333 61.7237667,14.6495167 62.35545,14.9062167 C70.8341,18.4119333 80.1684167,18.4119333 88.6420333,14.9062167 C89.2737167,14.6495167 89.7820833,14.91125 89.9683167,15.0396 C90.1595833,15.16795 90.6,15.5353833 90.6,16.2174 L90.6,20.1333333 Z M50.3333333,17.3373167 C50.3333333,10.5523833 55.8523833,5.03333333 62.6373167,5.03333333 L88.3652,5.03333333 C95.1476167,5.03333333 100.666667,10.5523833 100.666667,17.3373167 L100.666667,20.1333333 L95.6333333,20.1333333 L95.6333333,16.2174 C95.6333333,14.0606167 94.5612333,12.05735 92.7693667,10.8569 C90.9775,9.65393333 88.7125,9.43246667 86.7218167,10.2579333 C79.4864,13.2477333 71.5136,13.2477333 64.2781833,10.2579333 C62.2849833,9.42995 60.0250167,9.65393333 58.2306333,10.8569 C56.4387667,12.05735 55.3666667,14.0606167 55.3666667,16.2174 L55.3666667,20.1333333 L50.3333333,20.1333333 L50.3333333,17.3373167 Z M45.3,25.1666667 L60.4,25.1666667 L60.4,27.6833333 L45.3,27.6833333 L45.3,25.1666667 Z M5.03333333,60.4 L145.966667,60.4 L145.966667,62.9166667 L5.03333333,62.9166667 L5.03333333,60.4 Z M145.966667,55.3666667 L5.03333333,55.3666667 L5.03333333,52.85 L145.966667,52.85 L145.966667,55.3666667 Z M5.03333333,110.733333 L145.966667,110.733333 L145.966667,113.25 L5.03333333,113.25 L5.03333333,110.733333 Z M145.966667,105.7 L5.03333333,105.7 L5.03333333,103.183333 L145.966667,103.183333 L145.966667,105.7 Z M25.1666667,140.933333 L12.5833333,140.933333 L12.5833333,138.416667 L14.0279,138.416667 L25.1666667,138.416667 L25.1666667,140.933333 Z M138.416667,138.416667 L138.416667,140.933333 L125.833333,140.933333 L125.833333,138.416667 L136.9721,138.416667 L138.416667,138.416667 Z M145.966667,124.388767 C145.966667,129.3466 141.929933,133.383333 136.9721,133.383333 L120.8,133.383333 L30.2,133.383333 L14.0279,133.383333 C9.07006667,133.383333 5.03333333,129.3466 5.03333333,124.388767 L5.03333333,118.283333 L145.966667,118.283333 L145.966667,124.388767 Z M145.966667,98.15 L5.03333333,98.15 L5.03333333,67.95 L145.966667,67.95 L145.966667,98.15 Z M5.03333333,47.8166667 L5.03333333,41.7112333 C5.03333333,36.7534 9.07006667,32.7166667 14.0279,32.7166667 L40.2666667,32.7166667 L65.4333333,32.7166667 L85.5666667,32.7166667 L110.733333,32.7166667 L136.9721,32.7166667 C141.929933,32.7166667 145.966667,36.7534 145.966667,41.7112333 L145.966667,47.8166667 L5.03333333,47.8166667 Z"/>
    <path d="M31.32495 19.8690833C32.5681833 19.2474667 33.0715167 17.73495 32.4499 16.4917167 31.8257667 15.2484833 30.3182833 14.7501833 29.0725333 15.3667667L13.9725333 22.9167667C12.7293 23.5383833 12.2259667 25.0509 12.8475833 26.2941333 13.2905167 27.1749667 14.1789 27.6833333 15.1025167 27.6833333 15.4800167 27.6833333 15.8650667 27.5977667 16.22495 27.4190833L31.32495 19.8690833zM138.152417 26.2916167C138.774033 25.0483833 138.2707 23.5358667 137.027467 22.91425L121.927467 15.36425C120.68675 14.7476667 119.174233 15.2459667 118.5501 16.4892 117.928483 17.7324333 118.431817 19.24495 119.67505 19.8665667L134.77505 27.4165667C135.134933 27.5977667 135.519983 27.6833333 135.897483 27.6833333 136.8211 27.6833333 137.709483 27.1749667 138.152417 26.2916167z"/>
  </g>
</svg>
