<?xml version="1.0" encoding="UTF-8"?>
<svg width="80px" height="80px" viewBox="0 0 80 80" version="1.1" xmlns="http://www.w3.org/2000/svg" xmlns:xlink="http://www.w3.org/1999/xlink">
    <!-- Generator: Sketch 42 (36781) - http://www.bohemiancoding.com/sketch -->
    <title>user-list</title>
    <desc>Created with Sketch.</desc>
    <defs></defs>
    <g id="Symbols" stroke="none" stroke-width="1" fill="none" fill-rule="evenodd">
        <g id="steps" transform="translate(-126.000000, 0.000000)" fill="#4573E3">
            <g id="Group-9">
                <g>
                    <path d="M203.5,45 L188.5,45 C187.1175,45 186,46.12 186,47.5 C186,48.8825 187.1175,50 188.5,50 L203.5,50 C204.8825,50 206,48.8825 206,47.5 C206,46.12 204.8825,45 203.5,45 L203.5,45 Z M203.5,30 L183.5,30 C182.1175,30 181,31.1175 181,32.5 C181,33.8825 182.1175,35 183.5,35 L203.5,35 C204.8825,35 206,33.8825 206,32.5 C206,31.1175 204.8825,30 203.5,30 L203.5,30 Z M203.5,60 L188.5,60 C187.1175,60 186,61.12 186,62.5 C186,63.8825 187.1175,65 188.5,65 L203.5,65 C204.8825,65 206,63.8825 206,62.5 C206,61.12 204.8825,60 203.5,60 L203.5,60 Z M183.5,20 L203.5,20 C204.8825,20 206,18.8825 206,17.5 C206,16.12 204.8825,15 203.5,15 L183.5,15 C182.1175,15 181,16.12 181,17.5 C181,18.8825 182.1175,20 183.5,20 L183.5,20 Z M176,63.75 C176,69.9625 170.505,75 163.7275,75 L143.2725,75 C136.495,75 131,69.9625 131,63.75 L131,56.25 C131,50.935 135.0325,46.51 140.4375,45.3325 C144.125,48.26 148.625,50 153.5,50 C158.375,50 162.875,48.26 166.5625,45.3325 C171.9675,46.51 176,50.935 176,56.25 L176,63.75 L176,63.75 Z M136,25 C136,13.955 143.835,5 153.5,5 C163.165,5 171,13.955 171,25 C171,36.045 163.165,45 153.5,45 C143.835,45 136,36.045 136,25 L136,25 Z M170.8775,40.8825 C174.075,36.5625 176,31.03 176,25 C176,11.195 165.9275,0 153.5,0 C141.0725,0 131,11.195 131,25 C131,31.03 132.925,36.5625 136.1225,40.8825 C130.2475,42.9125 126,48.4325 126,55 L126,65 C126,73.2825 132.7175,80 141,80 L166,80 C174.2825,80 181,73.2825 181,65 L181,55 C181,48.4325 176.7525,42.9125 170.8775,40.8825 L170.8775,40.8825 Z" id="user-list"></path>
                </g>
            </g>
        </g>
    </g>
</svg>