<svg xmlns="http://www.w3.org/2000/svg" width="213" height="173" viewBox="0 0 213 173">
  <g fill="#363638">
    <path d="M18,35.9035068 C18,34.2996096 16.6572,33 15,33 C13.3428,33 12,34.2996096 12,35.9035068 L12,42.0964932 C12,43.7003904 13.3428,45 15,45 C16.6572,45 18,43.7003904 18,42.0964932 L18,35.9035068 Z"/>
    <path d="M82.7224268,8.12627232 L74.7809623,6.7041708 C75.0159414,6.02674829 74.9843096,5.28094833 74.6785356,4.62183454 C74.320795,3.84950563 73.6290377,3.28006718 72.7979498,3.07381389 L60.7477406,0.0846357018 C59.3145188,-0.271823797 57.8500418,0.528155015 57.3830962,1.91700193 L54.6495816,10.0542923 L45,17.2354192 L35.3504184,10.0542923 L32.6169038,1.91700193 C32.1503347,0.527781368 30.6839749,-0.271823797 29.2522594,0.0846357018 L17.2020502,3.07381389 C16.3709623,3.28006718 15.679205,3.84913198 15.3214644,4.62183454 C15.0156904,5.28094833 14.9840586,6.02674829 15.2190377,6.7041708 L7.27794979,8.12627232 C3.06075314,8.88141346 0,12.5151332 0,16.7672392 L0,81.6641659 C0,83.8724213 1.23627615,85.8576092 3.22606695,86.844038 L12.0502092,91.2216895 L12.0502092,92.4790126 C12.0502092,94.0270332 13.3143515,95.2813671 14.874477,95.2813671 L18.0753138,95.2813671 L18.0753138,170.197645 C18.0753138,171.745666 19.3394561,173 20.8995816,173 L35.9623431,173 C37.4098745,173 38.6224268,171.914555 38.7715481,170.485727 L45,110.74588 L51.2284519,170.485727 C51.3775732,171.914181 52.5901255,173 54.0376569,173 L69.1004184,173 C70.6605439,173 71.9246862,171.745666 71.9246862,170.197645 L71.9246862,95.2813671 L75.125523,95.2813671 C76.6856485,95.2813671 77.9497908,94.0270332 77.9497908,92.4790126 L77.9497908,91.2216895 L86.7735565,86.8444117 C88.7637238,85.8572356 90,83.8724213 90,81.6641659 L90,16.7672392 C90,12.5151332 86.9396234,8.88141346 82.7224268,8.12627232 Z M43.3054393,22.9806197 C43.8074059,23.354267 44.4038912,23.5410906 45,23.5410906 C45.5961088,23.5410906 46.1925941,23.354267 46.6945607,22.9806197 L51.5116318,19.3958477 L48.3458159,28.8199793 C48.2497908,29.1058194 48.2008368,29.4051109 48.2008368,29.7062706 L48.2008368,74.7307671 L41.7991632,74.7307671 L41.7991632,29.7062706 C41.7991632,29.4051109 41.7502092,29.1058194 41.6541841,28.8199793 L38.4883682,19.3958477 L43.3054393,22.9806197 Z M5.75246862,81.8308126 C5.68845188,81.7990525 5.64891213,81.7351589 5.64891213,81.6641659 L5.64891213,76.0893486 L12.0505858,79.2653504 L12.0505858,84.9556247 L5.75246862,81.8308126 L5.75246862,81.8308126 Z M14.874477,50.8180889 C13.3143515,50.8180889 12.0502092,52.0724228 12.0502092,53.6204434 L12.0502092,72.998912 L5.64853556,69.8229101 L5.64853556,16.7672392 C5.64853556,15.229307 6.75527197,13.9148159 8.28075314,13.6420534 L17.8237657,11.9333644 L20.7546025,17.7495579 L18.3735565,22.4747013 C17.6757741,23.8590644 18.2413808,25.5423454 19.636569,26.2343401 C21.0321339,26.9274558 22.7285774,26.3654903 23.4259833,24.9811272 L26.4385356,19.0027708 C26.8361925,18.2136278 26.8361925,17.2851143 26.4385356,16.4959712 L22.2966527,8.27647853 C22.2548536,8.05079557 22.1844351,7.83819027 22.0944351,7.63754169 L28.085272,6.15154648 L36.1510042,30.1606257 L36.1510042,47.726905 L29.4510879,34.4310404 C28.753682,33.0474245 27.0583682,32.4862063 25.6616736,33.1778274 C24.2668619,33.8701958 23.7012552,35.5531031 24.3986611,36.9378399 L36.1506276,60.2594082 L36.1506276,77.532748 C36.1506276,84.2288808 30.6606276,89.6762844 23.9121339,89.6762844 L17.6987448,89.6762844 L17.6987448,53.6200698 C17.6987448,52.0724228 16.4346025,50.8180889 14.874477,50.8180889 Z M66.2761506,167.395291 L56.5847699,167.395291 L49.1840586,96.4086609 C48.9577406,94.2388912 47.19841,92.6647153 45.0003766,92.6647153 C42.8023431,92.6647153 41.042636,94.2392649 40.8166946,96.4086609 L33.4159833,167.394917 L23.7246025,167.394917 L23.7246025,95.2809935 L23.912887,95.2809935 C32.8146025,95.2809935 40.2164435,88.7944768 41.574728,80.3351025 L48.4264017,80.3351025 C49.7846862,88.7944768 57.1865272,95.2809935 66.0882427,95.2809935 L66.2765272,95.2809935 L66.2765272,167.395291 L66.2761506,167.395291 Z M72.3008787,89.676658 L66.0874895,89.676658 C59.3389958,89.676658 53.8489958,84.2292544 53.8489958,77.5331216 L53.8489958,60.2597818 L65.6009623,36.9382136 C66.2987448,35.5538504 65.7331381,33.8705695 64.3379498,33.1782011 C62.9420084,32.4850854 61.2459414,33.0466772 60.5485356,34.431414 L53.8486192,47.7272786 L53.8486192,30.1609993 L61.9143515,6.15192013 L67.9051883,7.63791534 C67.8148117,7.83856392 67.7443933,8.05116922 67.7025941,8.27685217 L63.5607113,16.4963449 C63.1630544,17.2854879 63.1630544,18.2140014 63.5607113,19.0031445 L66.5732636,24.9815008 C67.2706695,26.365864 68.967113,26.9267085 70.3626778,26.2347138 C71.7574895,25.5423454 72.3230962,23.8594381 71.6256904,22.4750749 L69.2446444,17.7499315 L72.1754812,11.933738 L81.7188703,13.642427 C83.2439749,13.9151895 84.3507113,15.2296806 84.3507113,16.7676128 L84.3507113,69.8232838 L77.9490377,72.9992856 L77.9490377,53.6208171 C77.9490377,52.0727964 76.6848954,50.8184625 75.1247699,50.8184625 C73.5646444,50.8184625 72.3005021,52.0727964 72.3005021,53.6208171 L72.3005021,89.676658 L72.3008787,89.676658 Z M84.2475314,81.8311862 L77.9497908,84.9556247 L77.9497908,79.2653504 L84.3514644,76.0893486 L84.3514644,81.6641659 C84.3514644,81.7351589 84.3119247,81.7990525 84.2475314,81.8311862 L84.2475314,81.8311862 Z"/>
    <path d="M75,45 C76.6572,45 78,43.7003904 78,42.0964932 L78,35.9035068 C78,34.2996096 76.6572,33 75,33 C73.3428,33 72,34.2996096 72,35.9035068 L72,42.0964932 C72,43.7003904 73.3432,45 75,45 Z"/>
    <g transform="translate(109)">
      <path d="M103.788841,170.046492 C103.773953,169.885656 102.271968,153.738169 97.5856688,132.859867 C89.8754371,98.5081494 79.4860631,77.3385846 71.9727575,65.4846826 L71.9727575,55.0255958 L80.5833678,17.7646343 C80.6710033,17.3861961 80.6730335,16.997959 80.5982557,16.624927 L80.5999475,16.6245891 L77.7069611,2.17770933 C77.4535287,0.911292795 76.3403211,0 75.0471054,0 L66.3671311,0 C64.8692071,0 63.6544911,1.21269182 63.6544911,2.70887443 L63.6544911,16.5512667 C59.6648768,18.2593071 55.4928859,21.1810531 52.0165651,26.1183205 C51.9905113,26.1554886 51.9032142,26.1558265 51.8998306,26.1558265 C51.8961086,26.1558265 51.8091499,26.1554886 51.7830961,26.1183205 C48.3071137,21.1810531 44.1354611,18.259645 40.1458468,16.5516046 L40.1458468,2.70887443 C40.1458468,1.21302971 38.9314692,0 37.4332068,0 L28.7535709,0 C27.4606936,0 26.3474859,0.911292795 26.0937152,2.17737144 L23.2000521,16.6242512 L23.2017439,16.6245891 C23.1269661,16.9976211 23.1289963,17.3858582 23.2166318,17.7642964 L31.827242,55.0255958 L31.8275804,65.4843447 C24.3139364,77.3382468 13.9249008,98.5078115 6.21433077,132.859529 C1.52803116,153.738169 0.0260467636,169.885656 0.0111588804,170.046154 C-0.05786676,170.804382 0.195565616,171.555853 0.709535948,172.118104 C1.22350628,172.680017 1.95030567,173 2.71263296,173 L101.087705,173 C101.849694,173 102.576832,172.680017 103.090802,172.118104 C103.604434,171.556191 103.857866,170.804382 103.788841,170.046492 Z M69.0794328,5.41741097 L72.823397,5.41741097 L74.5943784,14.2620532 C73.0676937,14.284692 71.1735489,14.4333641 69.0790944,14.8614724 L69.0790944,5.41741097 L69.0794328,5.41741097 Z M30.9769409,5.41741097 L34.7205668,5.41741097 L34.7205668,14.8618103 C32.6264507,14.4333641 30.7319676,14.284692 29.2056212,14.2623911 L30.9769409,5.41741097 Z M29.2282913,19.6868978 C33.5234457,19.782859 41.645801,21.1401682 47.3448151,29.234354 C48.375801,30.6987748 50.0787718,31.5732374 51.8998306,31.5732374 C53.7208894,31.5732374 55.4231835,30.6987748 56.4545078,29.234354 C62.1924333,21.0847541 70.2856897,19.7487319 74.5754302,19.6716927 L67.1023895,52.0082266 L36.69761,52.0082266 L29.2282913,19.6868978 Z M66.5481543,57.4259754 L66.5481543,63.565798 L37.2528604,63.565798 L37.2528604,57.4259754 L66.5481543,57.4259754 Z M5.73554998,167.582927 C7.23719602,154.814691 14.419923,103.51536 36.0354376,68.9835468 L40.0578729,68.9835468 L34.751696,103.424468 C34.5239791,104.90308 35.5394004,106.286407 37.020068,106.513808 C37.1601495,106.535095 37.2988775,106.545569 37.4359137,106.545569 C38.7521379,106.545569 39.9073023,105.58731 40.1133641,104.248584 L45.5467648,68.9835468 L49.1871906,68.9835468 L49.1871906,124.061854 C49.1871906,125.557698 50.4015682,126.770728 51.8998306,126.770728 C53.3977547,126.770728 54.6124706,125.558036 54.6124706,124.061854 L54.6124706,68.9835468 L58.2528964,68.9835468 L63.6856203,104.248584 C63.8916822,105.587986 65.0471849,106.545569 66.3630708,106.545569 C66.500107,106.545569 66.6391734,106.535095 66.7789164,106.513808 C68.2595841,106.286407 69.2753438,104.903418 69.0472885,103.424468 L63.7414499,68.9835468 L67.7642236,68.9835468 C89.3662038,103.495087 96.5590816,154.810636 98.0637729,167.582927 L5.73554998,167.582927 Z"/>
    </g>
  </g>
</svg>
