<svg xmlns="http://www.w3.org/2000/svg" width="149" height="151" viewBox="0 0 149 151">
  <path fill="#363638" d="M134.650079,33.8359773 L100.798275,33.8359773 C101.516059,33.237966 102.213739,32.6027394 102.885326,31.931153 C107.069266,27.7472125 109.900195,22.6525666 110.856671,17.5844419 C111.896989,12.071017 110.641079,7.20607932 107.32079,3.88621813 C104.779456,1.34360057 101.300467,0 97.260255,0 C91.2095609,0 84.4868527,3.11068555 79.2758555,8.32125496 C77.178966,10.419 75.4704844,12.6882776 74.1504108,15.0182975 C72.8136544,12.6412238 71.1000397,10.3706629 69.0506317,8.32125496 C63.8396346,3.11111331 57.1164986,0 51.0662323,0 C47.0260198,0 43.5470312,1.34445609 41.0048414,3.88579037 C34.3860793,10.5058357 36.3349632,22.8249547 45.4407337,31.9307252 C46.1131756,32.6031671 46.8134221,33.2366827 47.5320623,33.8355496 L13.6772635,33.8355496 C6.34157224,33.8355496 0.373864023,39.8032578 0.373864023,47.138949 L0.373864023,50.6038215 C0.373864023,57.939085 6.34157224,63.907221 13.6772635,63.907221 L15.633847,63.907221 L15.633847,137.590943 C15.633847,144.926207 21.6015552,150.894343 28.9372465,150.894343 L119.388813,150.894343 C126.724932,150.894343 132.693068,144.926635 132.693068,137.590943 L132.693068,63.9067932 L134.650507,63.9067932 C141.985771,63.9067932 147.953907,57.939085 147.953907,50.6033938 L147.953907,47.1385212 C147.953479,39.8036856 141.985771,33.8359773 134.650079,33.8359773 Z M83.8135552,12.8585269 C87.8473513,8.82473088 92.8744108,6.41643059 97.2606827,6.41643059 C98.8656459,6.41643059 101.126368,6.7646289 102.784802,8.42306232 C104.559159,10.1974193 105.186686,13.0283484 104.551887,16.3944079 C103.832391,20.2066232 101.629416,24.1125184 98.3484816,27.3934533 C94.3155411,31.4272493 89.2893371,33.8359773 84.9030652,33.8359773 C83.2972465,33.8359773 81.0365241,33.487779 79.3780907,31.8293456 C75.4384023,27.8905127 77.4694164,19.2026657 83.8135552,12.8585269 Z M49.9784334,27.3934533 C43.6347224,21.0505977 41.6037082,12.3623229 45.5421133,8.42306232 C47.2005467,6.7646289 49.4612691,6.41643059 51.0662323,6.41643059 C55.4525042,6.41643059 60.4795637,8.82515864 64.5137875,12.8585269 C67.7938669,16.1386062 69.9968414,20.0445014 70.7163371,23.8575722 C71.351136,27.2236317 70.7240368,30.0541331 68.9483966,31.8297734 C67.2908187,33.4873513 65.0292408,33.8355496 63.4242776,33.8355496 C59.0384334,33.8359773 54.0122295,31.4281048 49.9784334,27.3934533 Z M60.604898,144.477484 L28.9368187,144.477484 C25.1395751,144.477484 22.0498499,141.387759 22.0498499,137.590516 L22.0498499,63.9067932 L60.6044703,63.9067932 L60.6044703,144.477484 L60.604898,144.477484 Z M60.604898,57.4903626 L13.6772635,57.4903626 C9.88001983,57.4903626 6.79029462,54.4006374 6.79029462,50.6033938 L6.79029462,47.1385212 C6.79029462,43.3412776 9.88001983,40.2515524 13.6772635,40.2515524 L60.604898,40.2515524 L60.604898,57.4903626 Z M81.3060142,144.477484 L67.0209008,144.477484 L67.0209008,40.2524079 L81.3060142,40.2524079 L81.3060142,144.477484 Z M126.27621,137.590516 C126.27621,141.387759 123.186484,144.477484 119.388385,144.477484 L87.7224448,144.477484 L87.7224448,63.9067932 L126.27621,63.9067932 L126.27621,137.590516 L126.27621,137.590516 Z M141.537048,50.6038215 C141.537048,54.4010652 138.447323,57.4907904 134.650079,57.4907904 L87.7224448,57.4907904 L87.7224448,40.2524079 L134.650079,40.2524079 C138.447323,40.2524079 141.537048,43.3421331 141.537048,47.1393768 L141.537048,50.6038215 Z" transform="translate(.603)"/>
</svg>
