<svg xmlns="http://www.w3.org/2000/svg" width="191" height="176" viewBox="0 0 191 176">
  <g fill="#363638" transform="translate(.349)">
    <rect width="5.631" height="17.531" x="92.341" y=".287"/>
    <rect width="17.53" height="5.631" x="109.59" y="11.718" transform="rotate(-65.178 118.355 14.533)"/>
    <rect width="5.631" height="17.53" x="69.139" y="5.768" transform="rotate(-24.822 71.954 14.533)"/>
    <rect width="5.631" height="4.528" x="55.52" y="57.164" transform="rotate(-64.983 58.336 59.427)"/>
    <rect width="5.631" height="4.528" x="62.146" y="66.117" transform="rotate(-64.983 64.962 68.38)"/>
    <rect width="5.631" height="4.528" x="64.258" y="87.285" transform="rotate(-64.983 67.074 89.549)"/>
    <rect width="5.631" height="4.528" x="40.976" y="90.505" transform="rotate(-64.983 43.792 92.77)"/>
    <rect width="5.631" height="4.528" x="44.316" y="109.661" transform="rotate(-64.983 47.131 111.925)"/>
    <path d="M187.926976,153.170715 L168.977125,153.094517 L155.044439,123.240194 L159.005612,117.657307 C164.975436,109.243204 165.974186,98.2082666 161.610464,88.8593463 L133.651052,28.9484975 L95.1544049,46.9140952 L56.658501,28.9484975 L28.6979738,88.8593463 C24.3349957,98.2086383 25.3333735,109.243204 31.3031973,117.657307 L35.2643711,123.239822 L21.3316848,153.094145 L2.38257709,153.170343 L0,158.2756 L36.1649927,175.153612 L38.5468264,170.048356 L26.4343397,155.475979 L40.3670261,125.621656 L47.1898943,125.071916 C57.4736323,124.243404 66.5724005,117.921211 70.9357504,108.572291 L95.1544049,56.6789443 L119.372688,108.571919 C123.735666,117.92084 132.834434,124.243404 143.118544,125.071545 L149.941784,125.621284 L163.87447,155.475607 L151.761983,170.048356 L154.143817,175.153612 L190.308438,158.2756 L187.926976,153.170715 Z M26.5874788,164.469557 L14.3404379,158.753974 L21.8119171,158.723495 L26.5874788,164.469557 Z M65.8338388,106.190457 C62.3253918,113.708399 55.0085385,118.792841 46.7386543,119.458921 L39.8789881,120.011635 L35.8966276,114.399012 C31.0954188,107.633013 30.2929252,98.7591214 33.8013722,91.2408083 L54.4011857,47.1018021 C54.646134,47.374256 54.8706389,47.6634361 55.1159589,47.9801219 C56.0875745,49.2342272 57.2974479,50.7953542 60.2353402,52.166544 C63.1736041,53.5377339 65.146943,53.461536 66.7322302,53.4016928 C68.0078939,53.3530005 68.9293305,53.3176893 70.6324457,54.1127489 C72.3359326,54.9078086 72.9009119,55.6370779 73.6825904,56.6454916 C74.6545778,57.8995969 75.8640795,59.4607239 78.8027151,60.8322854 C81.7413508,62.2031035 83.7146896,62.1283925 85.3003486,62.0678059 C85.7006661,62.0525663 86.0660442,62.0417871 86.4321656,62.0544248 L65.8338388,106.190457 Z M88.9169593,56.7287517 C87.3576909,56.3566831 86.1351798,56.4005433 85.0847644,56.4406866 C83.8094723,56.4886355 82.887664,56.5243184 81.1838055,55.7292587 C79.4803186,54.9341991 78.915711,54.2049298 78.1336607,53.1965161 C77.1616734,51.9424108 75.9521717,50.3812838 73.013536,49.010094 C70.0749004,47.6385324 68.1011899,47.7139869 66.516646,47.7749452 C65.2409823,47.8232658 64.319174,47.8589487 62.6164305,47.063889 C60.9133153,46.2688294 60.348336,45.5399318 59.5662858,44.5311464 C58.9225068,43.7004039 58.1709356,42.7347353 56.8848644,41.7791026 L59.3796939,36.4329862 L91.4121606,51.3822636 L88.9169593,56.7287517 Z M102.891276,57.5297585 C102.645212,57.8468159 102.420708,58.1363678 102.176131,58.4088217 L98.8970209,51.3822636 L130.929859,36.4329862 L134.207483,43.4565707 C133.841733,43.4692084 133.476355,43.4584292 133.076409,43.4431896 C131.490378,43.3818596 129.517039,43.3067768 126.579147,44.6783384 C123.640883,46.0498999 122.431381,47.6106552 121.459394,48.8647605 C120.677716,49.8739176 120.112736,50.6024435 118.409993,51.3971314 C116.706878,52.1921911 115.784698,52.1565082 114.509034,52.1081876 C112.923747,52.0464859 110.950408,51.9717748 108.0114,53.3437081 C105.072021,54.7152696 103.862891,56.2752815 102.891276,57.5297585 Z M150.430565,120.011635 L143.570899,119.458921 C135.301015,118.792469 127.984161,113.708399 124.475343,106.190457 L104.65981,63.7315212 C105.946253,62.7755168 106.697824,61.8098482 107.341974,60.9791057 C108.124025,59.9699486 108.689004,59.2414227 110.392491,58.446363 C112.095978,57.6509317 113.017043,57.6862429 114.29345,57.7353069 C115.879852,57.7962652 117.852076,57.8713479 120.791083,56.4997864 C123.728975,55.1282249 124.938477,53.5674696 125.910464,52.3133643 C126.692143,51.3042072 127.256751,50.5756813 128.960237,49.7806216 C130.663353,48.985562 131.584789,49.0216166 132.860825,49.0695655 C133.910868,49.1097088 135.133751,49.153569 136.692648,48.7818721 L156.508181,91.24118 C160.016628,98.7591214 159.213763,107.633013 154.412926,114.399012 L150.430565,120.011635 Z M163.721331,164.469557 L168.497264,158.723866 L175.968372,158.754345 L163.721331,164.469557 Z"/>
    <rect width="4.528" height="5.631" x="135.907" y="72.097" transform="rotate(-25.017 138.171 74.913)"/>
    <rect width="4.528" height="5.631" x="123.094" y="59.795" transform="rotate(-25.017 125.358 62.611)"/>
    <rect width="4.528" height="5.631" x="118.928" y="75.955" transform="rotate(-25.017 121.192 78.77)"/>
    <rect width="4.528" height="5.631" x="131.808" y="95.39" transform="rotate(-25.017 134.072 98.205)"/>
    <rect width="4.528" height="5.631" x="145.022" y="98.413" transform="rotate(-25.017 147.286 101.23)"/>
  </g>
</svg>
