<svg xmlns="http://www.w3.org/2000/svg" width="98" height="190" viewBox="0 0 98 190">
  <g fill="#363638">
    <path d="M19.2047097,39.4313333 C19.2047097,37.7384946 17.8330323,36.3668172 16.1401935,36.3668172 C14.4473548,36.3668172 13.0756774,37.7384946 13.0756774,39.4313333 L13.0756774,45.9677419 C13.0756774,47.6605806 14.4473548,49.0322581 16.1401935,49.0322581 C17.8330323,49.0322581 19.2047097,47.6605806 19.2047097,45.9677419 L19.2047097,39.4313333 Z"/>
    <path d="M89.7596774,9.29488172 L81.1426667,7.73974194 C81.3976344,6.99894624 81.3633118,6.18337634 81.0315269,5.46260215 C80.6433548,4.61802151 79.8927527,3.99531183 78.9909677,3.76976344 L65.9156989,0.500946237 C64.3605591,0.111139785 62.7715054,0.985956989 62.2648387,2.50473118 L59.2987957,11.4032688 L48.8283656,19.2561935 L38.3579355,11.4032688 L35.3918925,2.50473118 C34.8856344,0.985548387 33.2945376,0.111139785 31.7410323,0.500946237 L18.6657634,3.76976344 C17.7639785,3.99531183 17.0133763,4.6176129 16.6252043,5.46260215 C16.2934194,6.18337634 16.2590968,6.99894624 16.5140645,7.73974194 L7.89746237,9.29488172 C3.32152688,10.1206667 0.000408602151,14.0943226 0.000408602151,18.7442151 L0.000408602151,89.7122796 C0.000408602151,92.1271183 1.34184946,94.2980215 3.50090323,95.3767312 L13.0756774,100.163914 L13.0756774,101.53886 C13.0756774,103.231699 14.4473548,104.603376 16.1401935,104.603376 L19.6133118,104.603376 L19.6133118,186.528108 C19.6133118,188.220946 20.9849892,189.592624 22.677828,189.592624 L39.021914,189.592624 C40.5925806,189.592624 41.9082796,188.405634 42.070086,186.84314 L48.8283656,121.514602 L55.5866452,186.84314 C55.7484516,188.405226 57.0641505,189.592624 58.6348172,189.592624 L74.9789032,189.592624 C76.6717419,189.592624 78.0434194,188.220946 78.0434194,186.528108 L78.0434194,104.603376 L81.5165376,104.603376 C83.2093763,104.603376 84.5810538,103.231699 84.5810538,101.53886 L84.5810538,100.163914 L94.1554194,95.3771398 C96.3148817,94.2976129 97.6563226,92.1271183 97.6563226,89.7122796 L97.6563226,18.7442151 C97.6563226,14.0943226 94.3356129,10.1206667 89.7596774,9.29488172 Z M46.9896559,25.5388602 C47.5343226,25.9474624 48.1815484,26.1517634 48.8283656,26.1517634 C49.4751828,26.1517634 50.1224086,25.9474624 50.6670753,25.5388602 L55.893914,21.6187312 L52.4587957,31.9244946 C52.3546022,32.2370753 52.3014839,32.5643656 52.3014839,32.8936989 L52.3014839,82.1302581 L45.3552473,82.1302581 L45.3552473,32.8936989 C45.3552473,32.5643656 45.302129,32.2370753 45.1979355,31.9244946 L41.7628172,21.6187312 L46.9896559,25.5388602 Z M6.24221505,89.8945161 C6.17275269,89.8597849 6.12984946,89.789914 6.12984946,89.7122796 L6.12984946,83.6159355 L13.076086,87.0890538 L13.076086,93.3116559 L6.24221505,89.8945161 L6.24221505,89.8945161 Z M16.1401935,55.9805376 C14.4473548,55.9805376 13.0756774,57.3522151 13.0756774,59.0450538 L13.0756774,80.2363871 L6.12944086,76.7632688 L6.12944086,18.7442151 C6.12944086,17.0624086 7.33032258,15.6249462 8.98556989,15.3266667 L19.3403656,13.458129 L22.5205161,19.8184301 L19.9369247,24.9856129 C19.1797849,26.4994839 19.7935054,28.3402366 21.3073763,29.0969677 C22.8216559,29.8549247 24.6624086,29.2403871 25.4191398,27.7265161 L28.687957,21.1888817 C29.1194409,20.325914 29.1194409,19.3105376 28.687957,18.4475699 L24.1937419,9.45913978 C24.1483871,9.21234409 24.0719785,8.97984946 23.9743226,8.76043011 L30.4747742,7.13541935 L39.2266237,33.3905591 L39.2266237,52.600172 L31.9567742,38.0604731 C31.200043,36.5474194 29.3605161,35.9336989 27.8450108,36.6900215 C26.3315484,37.4471613 25.717828,39.2875054 26.4745591,40.8017849 L39.2262151,66.3050968 L39.2262151,85.1943656 C39.2262151,92.5169247 33.2692043,98.4739355 25.9466452,98.4739355 L19.2047097,98.4739355 L19.2047097,59.0446452 C19.2047097,57.3522151 17.8330323,55.9805376 16.1401935,55.9805376 Z M71.9143871,183.463591 L61.3986022,183.463591 L53.3683441,105.836129 C53.1227742,103.463376 51.2137849,101.741935 48.8287742,101.741935 C46.4437634,101.741935 44.5343656,103.463785 44.2892043,105.836129 L36.2589462,183.463183 L25.7431613,183.463183 L25.7431613,104.602968 L25.9474624,104.602968 C35.6064086,104.602968 43.6378925,97.5096344 45.1117204,88.2588817 L52.5462366,88.2588817 C54.0200645,97.5096344 62.0515484,104.602968 71.7104946,104.602968 L71.9147957,104.602968 L71.9147957,183.463591 L71.9143871,183.463591 Z M78.4516129,98.4743441 L71.7096774,98.4743441 C64.3871183,98.4743441 58.4301075,92.5173333 58.4301075,85.1947742 L58.4301075,66.3055054 L71.1817634,40.8021935 C71.9389032,39.2883226 71.3251828,37.4475699 69.8113118,36.6904301 C68.2966237,35.9324731 66.4562796,36.5466022 65.6995484,38.0608817 L58.4296989,52.6005806 L58.4296989,33.3909677 L67.1815484,7.13582796 L73.682,8.76083871 C73.5839355,8.98025806 73.5075269,9.21275269 73.462172,9.45954839 L68.967957,18.4479785 C68.5364731,19.3109462 68.5364731,20.3263226 68.967957,21.1892903 L72.2367742,27.7269247 C72.9935054,29.2407957 74.8342581,29.8541075 76.3485376,29.0973763 C77.862,28.3402366 78.4757204,26.4998925 77.7189892,24.9860215 L75.1353978,19.8188387 L78.3155484,13.4585376 L88.6707527,15.3270753 C90.3255914,15.6253548 91.5264731,17.0628172 91.5264731,18.7446237 L91.5264731,76.7636774 L84.5802366,80.2367957 L84.5802366,59.0454624 C84.5802366,57.3526237 83.2085591,55.9809462 81.5157204,55.9809462 C79.8228817,55.9809462 78.4512043,57.3526237 78.4512043,59.0454624 L78.4512043,98.4743441 L78.4516129,98.4743441 Z M91.4145161,89.8949247 L84.5810538,93.3116559 L84.5810538,87.0890538 L91.5272903,83.6159355 L91.5272903,89.7122796 C91.5272903,89.789914 91.4843871,89.8597849 91.4145161,89.8949247 L91.4145161,89.8949247 Z"/>
    <path d="M81.5165376,49.0322581 C83.2093763,49.0322581 84.5810538,47.6605806 84.5810538,45.9677419 L84.5810538,39.4313333 C84.5810538,37.7384946 83.2093763,36.3668172 81.5165376,36.3668172 C79.8236989,36.3668172 78.4520215,37.7384946 78.4520215,39.4313333 L78.4520215,45.9677419 C78.4520215,47.6605806 79.8241075,49.0322581 81.5165376,49.0322581 Z"/>
  </g>
</svg>
