<?xml version="1.0" encoding="UTF-8"?>
<svg width="38px" height="19px" viewBox="0 0 38 19" version="1.1" xmlns="http://www.w3.org/2000/svg" xmlns:xlink="http://www.w3.org/1999/xlink">
    <!-- Generator: Sketch 45.1 (43504) - http://www.bohemiancoding.com/sketch -->
    <title>MT</title>
    <desc>Created with Sketch.</desc>
    <defs></defs>
    <g id="Page-1" stroke="none" stroke-width="1" fill="none" fill-rule="evenodd">
        <g id="Desktop-HD" transform="translate(-25.000000, -23.000000)" fill="#FFFFFF">
            <path d="M34.698,29.942 L38.468,23.702 C38.5200003,23.6153329 38.6326658,23.4766676 38.806,23.286 C38.9793342,23.0953324 39.2393316,23 39.586,23 L43.694,23 C43.8846676,23 44.0493326,23.0693326 44.188,23.208 C44.3266674,23.3466674 44.396,23.5113324 44.396,23.702 L44.396,40.498 C44.396,40.6886676 44.3266674,40.8533326 44.188,40.992 C44.0493326,41.1306674 43.8846676,41.2 43.694,41.2 L38.988,41.2 C38.7973324,41.2 38.6326674,41.1306674 38.494,40.992 C38.3553326,40.8533326 38.286,40.6886676 38.286,40.498 L38.286,33.374 L36.57,36.182 C36.4833329,36.3206674 36.3663341,36.4636659 36.219,36.611 C36.0716659,36.7583341 35.8680013,36.832 35.608,36.832 L33.788,36.832 C33.5279987,36.832 33.3243341,36.7583341 33.177,36.611 C33.0296659,36.4636659 32.9126671,36.3206674 32.826,36.182 L31.11,33.374 L31.11,40.498 C31.11,40.6886676 31.0406674,40.8533326 30.902,40.992 C30.7633326,41.1306674 30.5986676,41.2 30.408,41.2 L25.702,41.2 C25.5113324,41.2 25.3466674,41.1306674 25.208,40.992 C25.0693326,40.8533326 25,40.6886676 25,40.498 L25,23.702 C25,23.5113324 25.0693326,23.3466674 25.208,23.208 C25.3466674,23.0693326 25.5113324,23 25.702,23 L29.81,23 C30.1566684,23 30.4166658,23.0953324 30.59,23.286 C30.7633342,23.4766676 30.8759997,23.6153329 30.928,23.702 L34.698,29.942 Z M62.206,23 C62.3966676,23 62.5613326,23.0693326 62.7,23.208 C62.8386674,23.3466674 62.908,23.5113324 62.908,23.702 L62.908,27.888 C62.908,28.0786676 62.8386674,28.2433326 62.7,28.382 C62.5613326,28.5206674 62.3966676,28.59 62.206,28.59 L57.89,28.59 L57.89,40.498 C57.89,40.6886676 57.8206674,40.8533326 57.682,40.992 C57.5433326,41.1306674 57.3786676,41.2 57.188,41.2 L51.988,41.2 C51.7973324,41.2 51.6326674,41.1306674 51.494,40.992 C51.3553326,40.8533326 51.286,40.6886676 51.286,40.498 L51.286,28.59 L46.97,28.59 C46.7793324,28.59 46.6146674,28.5206674 46.476,28.382 C46.3373326,28.2433326 46.268,28.0786676 46.268,27.888 L46.268,23.702 C46.268,23.5113324 46.3373326,23.3466674 46.476,23.208 C46.6146674,23.0693326 46.7793324,23 46.97,23 L62.206,23 Z" id="MT"></path>
        </g>
    </g>
</svg>