<svg xmlns="http://www.w3.org/2000/svg" width="18" height="12" viewBox="0 0 18 12">
  <path fill="#00F" d="M2.17805204,4.992001 L7.07647586,0.882985767 C7.30879837,0.68810334 7.31799664,0.364024383 7.09702078,0.159135157 C6.87604491,-0.0457540692 6.50857398,-0.0538661833 6.27625147,0.141016243 L0.180441457,5.25445214 C-0.0559022389,5.45270772 -0.0607135699,5.78372127 0.169790065,5.98725462 L6.26560008,11.3698187 C6.49218189,11.5698891 6.85976786,11.5700869 7.08662632,11.3702605 C7.31348479,11.1704341 7.31370906,10.8462537 7.08712725,10.6461833 L2.13332017,6.272001 L16.9612685,6.272001 C17.2756124,6.272001 17.5304385,5.98546324 17.5304385,5.632001 C17.5304385,5.27853877 17.2756124,4.992001 16.9612685,4.992001 L2.17805204,4.992001 Z" transform="matrix(-1 0 0 1 18 0)"/>
</svg>
